<svg xmlns="http://www.w3.org/2000/svg" viewBox="0 0 248.21 248.2">
  <defs>
    <style>
      .cls-1 {
        fill: #e9a823;
      }

      .cls-2 {
        fill: #71cbdc;
      }

      .cls-3 {
        fill: #3fb991;
      }

      .cls-4 {
        fill: #e11765;
      }

      .cls-5 {
        fill: #474443;
      }
    </style>
  </defs>
  <title>Asset 1</title>
  <g id="Layer_2" data-name="Layer 2">
    <g id="Layer_1-2" data-name="Layer 1">
      <g>
        <path class="cls-1" d="M136.88,62.08c-3-9.1-16.17-13-29.51-8.63S85.61,68.68,88.57,77.78l44.81,137.85c3.21,8.46,15.61,12.19,28.49,8.34,13.43-4,22.74-15,19.8-24Z"/>
        <path class="cls-2" d="M155.7,73c2.51-8.89,3.75-9.5-5.42-8.62-7.25.69-18.23-14.35-20.75-5.46l-38,134.6c-2.15,8.45,1.22,16.81,7.86,19,6.92,2.28,15-3,17.51-11.83.08-.27,25.27-83.08,35-115.18Z"/>
        <path class="cls-3" d="M73.09,60.1c-3.26-8.94-18.85-18.28-27.69-7.55C35.2,64.93,34,66.27,26.9,80.84L77.46,219.41c7.25,6.06,13.25,6.06,16.57,6.82,13.55,3.08,31.69-21.88,28.46-30.75Z"/>
        <path class="cls-4" d="M217.52,73c-.59-3.18-12.06-17.47-14-20.08A25,25,0,0,0,196,45.59c-10.93-7.32-26.45,10.53-18.37,25.21L156.95,175c-2,8.66-16.27,55.13-.3,50.52,12.41-3.59,13.48-3.87,21-9.35C178.81,215.25,225.12,113.77,217.52,73Z"/>
      </g>
      <g id="Layer_2-2" data-name="Layer 2">
        <g>
          <path class="cls-5" d="M17.64,124.1a106.48,106.48,0,0,0,60,95.81L26.86,80.77A106.06,106.06,0,0,0,17.64,124.1Z"/>
          <path class="cls-5" d="M196,118.72c0-13.16-4.73-22.27-8.78-29.36-5.4-8.77-10.45-16.2-10.45-25,0-9.79,7.42-18.9,17.88-18.9.47,0,.92.06,1.38.09a106.44,106.44,0,0,0-160.84,20c2.5.07,4.85.13,6.85.13,11.14,0,28.37-1.35,28.37-1.35,5.74-.34,6.42,8.09.68,8.77,0,0-5.77.68-12.18,1L97.64,189.5l23.3-69.87L104.35,74.18c-5.73-.34-11.16-1-11.16-1-5.74-.34-5.06-9.11.67-8.77,0,0,17.58,1.35,28,1.35,11.13,0,28.37-1.35,28.37-1.35,5.74-.34,6.42,8.09.68,8.77,0,0-5.78.68-12.18,1l38.47,114.44,10.62-35.48C192.47,138.41,196,127.84,196,118.72Z"/>
          <path class="cls-5" d="M126,133.41,94,226.23a106.51,106.51,0,0,0,65.43-1.7,9.35,9.35,0,0,1-.76-1.47Z"/>
          <path class="cls-5" d="M217.52,73A81.68,81.68,0,0,1,218.23,84c0,10.8-2,22.95-8.09,38.13l-32.52,94A106.48,106.48,0,0,0,217.52,73Z"/>
          <path class="cls-5" d="M124.1,0A124.1,124.1,0,1,0,248.21,124.1,124.24,124.24,0,0,0,124.1,0Zm0,242.51A118.41,118.41,0,1,1,242.51,124.1,118.55,118.55,0,0,1,124.1,242.51Z"/>
        </g>
      </g>
    </g>
  </g>
</svg>
